<svg width="128" height="128" xmlns="http://www.w3.org/2000/svg">

 <g>
  <title>background</title>
  <rect fill="none" id="canvas_background" height="402" width="582" y="-1" x="-1"/>
 </g>
 <g>
  <title>Layer 1</title>
  <path stroke-width="5" fill="#a7b1c2" stroke="#a7b1c2" id="svg_1" d="m91.046,111.818c-1.19,0 -2.347,-0.361 -3.341,-1.049c-0.517,-0.367 -18.785,-13.671 -23.705,-17.254l-23.664,17.225c-1.039,0.717 -2.194,1.078 -3.382,1.078c-3.228,0 -5.854,-2.636 -5.854,-5.877c0,-0.639 0.114,-1.305 0.339,-1.98l0.038,-0.105c0.253,-0.71 6.214,-18.996 9.008,-27.575c-7.342,-5.364 -23.014,-16.808 -23.653,-17.25c-1.589,-1.114 -2.524,-2.915 -2.524,-4.834c0,-3.305 2.608,-5.994 5.815,-5.994l29.346,0l8.933,-27.59c0.687,-2.446 2.998,-4.207 5.599,-4.207c2.604,0 4.915,1.762 5.622,4.283l8.947,27.514l29.35,0c3.185,0 5.775,2.679 5.775,5.974c0,1.932 -0.936,3.74 -2.502,4.838c-0.671,0.463 -16.339,11.903 -23.678,17.265c2.797,8.586 8.764,26.887 9.025,27.621c0.246,0.727 0.361,1.396 0.361,2.041c0,3.241 -2.627,5.876 -5.855,5.876zm-27.046,-23.252l1.178,0.856c8.396,6.116 24.391,17.764 24.824,18.072c0.299,0.206 0.669,0.323 1.044,0.323c1.023,0 1.855,-0.842 1.855,-1.877c0,-0.209 -0.045,-0.447 -0.133,-0.709c-0.148,-0.371 -6.698,-20.473 -9.506,-29.094l-0.449,-1.378l1.171,-0.854c2.486,-1.818 24.313,-17.764 24.944,-18.188c0.468,-0.329 0.766,-0.913 0.766,-1.541c0,-1.069 -0.813,-1.974 -1.775,-1.974l-32.256,0l-9.869,-30.355c-0.252,-0.894 -0.964,-1.441 -1.794,-1.441c-0.829,0 -1.541,0.549 -1.771,1.366l-9.85,30.431l-32.256,0c-0.984,0 -1.815,0.914 -1.815,1.994c0,0.617 0.298,1.193 0.797,1.543c0.6,0.403 22.425,16.349 24.911,18.167l1.171,0.854l-0.449,1.379c-2.716,8.344 -8.937,27.436 -9.504,29.086l0.001,0c-0.089,0.267 -0.134,0.508 -0.134,0.717c0,1.035 0.831,1.877 1.854,1.877c0.38,0 0.74,-0.114 1.071,-0.342l25.974,-18.912z"/>
 </g>
</svg>