<svg width="128" height="128" xmlns="http://www.w3.org/2000/svg">

 <g>
  <title>background</title>
  <rect fill="none" id="canvas_background" height="402" width="582" y="-1" x="-1"/>
 </g>
 <g>
  <title>Layer 1</title>
  <path stroke-width="10" fill="#a7b1c2" stroke="#a7b1c2" id="svg_1" d="m91.046,111.818c-1.19,0 -2.347,-0.361 -3.341,-1.049c-0.517,-0.367 -18.785,-13.671 -23.705,-17.254l-23.664,17.225c-1.039,0.717 -2.194,1.078 -3.382,1.078c-3.228,0 -5.854,-2.636 -5.854,-5.877c0,-0.639 0.114,-1.305 0.339,-1.98l0.038,-0.105c0.253,-0.71 6.214,-18.996 9.008,-27.575c-7.342,-5.364 -23.014,-16.808 -23.653,-17.25c-1.589,-1.114 -2.524,-2.915 -2.524,-4.834c0,-3.305 2.608,-5.994 5.815,-5.994l29.346,0l8.933,-27.59c0.687,-2.446 2.998,-4.207 5.599,-4.207c2.604,0 4.915,1.762 5.622,4.283l8.947,27.514l29.35,0c3.185,0 5.775,2.679 5.775,5.974c0,1.932 -0.936,3.74 -2.502,4.838c-0.671,0.463 -16.339,11.903 -23.678,17.265c2.797,8.586 8.764,26.887 9.025,27.621c0.246,0.727 0.361,1.396 0.361,2.041c0,3.241 -2.627,5.876 -5.855,5.876zm-27.046,-23.252l1.178,0.856c8.396,6.116 24.391,17.764 24.824,18.072c0.299,0.206 0.669,0.323 1.044,0.323c1.023,0 1.855,-0.842 1.855,-1.877c0,-0.209 -0.045,-0.447 -0.133,-0.709c-0.148,-0.371 -6.698,-20.473 -9.506,-29.094l-0.449,-1.378l1.171,-0.854c2.486,-1.818 24.313,-17.764 24.944,-18.188c0.468,-0.329 0.766,-0.913 0.766,-1.541c0,-1.069 -0.813,-1.974 -1.775,-1.974l-32.256,0l-9.869,-30.355c-0.252,-0.894 -0.964,-1.441 -1.794,-1.441c-0.829,0 -1.541,0.549 -1.771,1.366l-9.85,30.431l-32.256,0c-0.984,0 -1.815,0.914 -1.815,1.994c0,0.617 0.298,1.193 0.797,1.543c0.6,0.403 22.425,16.349 24.911,18.167l1.171,0.854l-0.449,1.379c-2.716,8.344 -8.937,27.436 -9.504,29.086l0.001,0c-0.089,0.267 -0.134,0.508 -0.134,0.717c0,1.035 0.831,1.877 1.854,1.877c0.38,0 0.74,-0.114 1.071,-0.342l25.974,-18.912z"/>
  <path d="m64.416122,60.150875c0,0 0,0.208061 0,1.456425c0,1.040306 -0.024109,2.073082 -0.208061,2.704788c-0.239849,0.823647 -0.208061,1.456429 -0.208061,1.66449c0,0.416115 0,0.624176 0,1.664482c0,2.288666 -0.208061,3.745094 -0.208061,5.201515c0,0.416122 -0.30352,0.768463 -0.416122,1.040306c-0.159245,0.384445 0.222866,1.092377 1.040306,0.416122c5.537186,-4.580795 6.449516,-17.451138 6.865997,-27.464008c0.293983,-7.067951 0.735603,-10.915794 0,-11.651398c-0.147118,-0.147118 -0.832237,0 -1.040298,0c-0.416122,0 -1.040306,0 -1.456429,0c-1.040298,0 -1.664482,0.208061 -1.872543,0.208061c0,0 -0.329941,-0.294243 -0.624184,0c-0.147125,0.147121 -0.388588,1.67215 -2.080605,7.698242c-0.818935,2.916618 -1.664486,4.993458 -1.872547,5.617638c0,0 -0.105553,-0.005062 -0.208061,-1.040302c-0.313618,-3.167229 -1.040302,-5.409576 -1.040302,-6.03376c0,-0.208061 -0.016407,-0.207844 0,0.416122c0.104065,3.957256 0.52002,8.323952 0.416122,11.859459c-0.104076,3.541615 -0.519646,5.6022 -0.624184,6.65794c-0.0205,0.20705 -0.031075,0.317444 -0.208061,0.208061c-0.395756,-0.244591 -0.728153,-1.867352 -0.832241,-4.993458c-0.020771,-0.623833 -0.035774,-0.948887 -0.208061,-0.832241c-0.927799,0.628151 -1.339676,4.216362 -2.912849,5.825699c-1.775322,1.816128 -4.161213,2.496727 -5.201515,2.496727c-0.624184,0 -1.682678,0.042873 -2.704788,-0.416122c-1.273224,-0.571762 -2.498302,-0.996056 -3.120911,-1.040302c-1.46751,-0.104294 -2.460056,-0.309231 -2.912849,-0.416122c-0.202496,-0.047802 -0.679527,-0.028919 -2.288666,-0.62418c-0.872681,-0.322826 -1.664486,-0.416122 -2.080608,-0.416122c-0.208061,0 -0.209621,0.025421 -0.416122,0c-0.851429,-0.104816 -1.431156,-0.31073 -2.080605,-0.416122c-0.205376,-0.033329 -0.642376,-0.165184 -1.664486,-0.62418c-0.848816,-0.381176 -1.569027,-0.560398 -1.456425,-0.832245c0.159245,-0.384445 2.917408,-0.059738 6.03376,0.208061c3.960396,0.340332 7.282124,0.624184 9.570789,0.624184c1.248363,0 1.675617,0.095608 2.080608,0c0.452789,-0.106892 1.664482,-0.624184 2.496727,-0.624184c1.040302,0 1.248363,0 1.664486,0c0.832241,0 2.704788,0 4.993454,0c1.040302,0 1.872547,0 2.080608,0c0.832241,0 2.063324,-0.415802 5.825699,-0.62418c2.285164,-0.126564 3.537033,0 4.577332,0c0.624184,0 1.643288,-0.29108 3.120911,-0.624184c1.234604,-0.27832 2.704788,-0.416122 3.328972,-0.416122c0.832245,0 1.456421,0 2.288666,0c1.040306,0 1.456429,0 1.664482,0c0.416122,0 1.440987,0.103523 2.496735,0.208061c1.035233,0.102509 2.080605,0.416122 2.288666,0.416122c0,0 1.040298,0 2.288666,0c0.208061,0 0.416122,0 0.624184,0c0.624184,0 1.040298,0.208061 1.24836,0.416122c0,0 0.208061,0 0.832245,0c0.832245,0 1.040306,0.208061 1.040306,0.208061c0,0 -0.208061,0 -0.208061,0c-0.416122,0 -1.278214,-0.091991 -3.328972,0.62418c-1.0578,0.369404 -2.321808,0.751236 -2.912849,1.040302c-0.673897,0.32959 -1.101402,0.514599 -2.288666,1.248367c-0.884933,0.546921 -2.142548,2.370132 -3.120911,3.953152c-0.546921,0.884933 -1.126358,1.794586 -1.872543,2.704788c-0.475601,0.580147 -1.311844,1.099968 -2.912849,1.872543c-1.092628,0.52726 -1.66449,1.248367 -2.288673,1.872551c-0.416122,0.416115 -0.725349,0.795563 -0.832237,1.24836c-0.286819,1.214973 0.280731,2.475426 1.040298,5.201515c0.230255,0.826378 0.46019,1.120323 0.624184,1.248367c0.67617,0.527939 1.031082,2.837471 2.496727,4.993454c0.913582,1.343887 1.551888,1.808769 1.66449,2.080605c0.07962,0.192223 0.268105,0.80484 0.624176,1.66449c0.251785,0.607864 0.290619,0.844994 0.416122,1.456421c0.318596,1.552185 1.127457,3 1.456429,3.328972c0.328972,0.328972 0.416122,0.208061 0.624176,0.208061c0,0 -0.239868,0.023392 -1.456421,-1.664482c-1.923538,-2.668762 -4.458527,-6.035278 -6.03376,-10.611099c-1.248779,-3.627518 -1.071259,-5.64547 -0.832245,-6.657936c0.106888,-0.452797 0.346748,-0.776337 0.624184,-1.66449c0.438667,-1.404289 0.663773,-3.720436 1.040306,-4.36927c0.233513,-0.40239 0.624184,-0.416122 0.624184,-0.416122c0.208061,0 0.517288,0.036674 0.624176,-0.416122c0.191208,-0.809982 -0.093292,-1.832108 -0.416115,-2.704788c-0.29763,-0.804569 -0.36145,-0.079224 -3.745094,2.288666c-1.755051,1.228195 -3.666031,2.012985 -4.785393,2.704788c-0.500595,0.309387 -1.395798,1.312096 -2.704796,2.496727c-2.192547,1.98423 -5.106548,4.036827 -6.033756,4.993462c-0.724022,0.747002 -1.400322,2.310799 -2.080605,3.953148c-0.96207,2.322647 -1.630722,3.711327 -2.28867,4.369278c-0.657944,0.657944 -0.84808,0.544563 -1.040302,0.624184c-0.271847,0.112602 -1.048595,0.816422 -1.456425,1.040298c-1.063492,0.583801 -1.248363,1.040306 -1.872547,1.248367c-1.248363,0.416122 -1.362625,0.822914 -2.080605,1.040298c-0.39827,0.120583 -0.431961,0.128441 -0.624184,0.208061c-1.087376,0.450409 -1.412704,1.88887 -1.664486,2.496727c-0.17804,0.429825 -0.261425,0.581947 -0.416119,0.832245c-0.345901,0.559685 -0.667805,1.039162 -0.624184,0.208061c0.208347,-3.969536 0.509754,-7.135437 2.28867,-15.604546c0.176342,-0.839539 0.384331,-1.673088 0.62418,-2.496735c0.367908,-1.263412 0.648293,-2.281143 0.832245,-2.912849c0.239845,-0.823639 0.060936,-1.101234 0.208057,-1.24836c0.147121,-0.147125 1.072945,-0.536736 2.28867,-1.040306c0.429821,-0.17804 0.431957,-0.128441 0.62418,-0.208061c0.271847,-0.112602 1.248363,-0.624176 2.28867,-0.624176c0.208061,0 0.608742,0.103516 1.664486,0.208054c1.03524,0.102509 1.904221,0.04882 2.288666,0.208061c0.271847,0.112602 0.933926,1.462662 0.832241,2.288673c-0.104813,0.851425 -0.592548,1.681068 -1.040302,2.496727c-0.583797,1.063484 -1.664482,2.704788 -2.080605,3.120911c-0.832241,0.832245 -1.040306,0.832237 -1.456425,0.832237c-1.040306,0 -2.143776,0.130547 -3.537033,-0.624176c-0.659611,-0.357307 -1.730724,-1.430542 -3.328972,-5.617638c-0.868454,-2.275177 -1.248363,-3.120911 -1.248363,-3.328972c0,-0.416122 -0.775124,-0.272156 -2.080605,-1.040306c-0.253601,-0.149216 -0.435612,-0.186546 -0.208061,0c3.480843,2.853607 8.050648,5.904121 12.899761,9.778854c4.51915,3.611069 9.705791,5.866425 10.194973,6.657936c0.109383,0.176987 0.129044,0.276947 0.416122,-0.416122c0.405991,-0.980141 0.7043,-1.949944 1.24836,-2.704788c0.17205,-0.238701 0.287682,-0.2239 0.208061,-0.416115c-0.225204,-0.543694 -0.639145,-1.030586 -1.040298,-1.66449c-0.64875,-1.025162 -1.040306,-2.080605 -1.248367,-1.872543c-0.416122,0.416122 0.674362,0.578712 3.120911,3.328972c1.27494,1.433212 2.288666,2.912849 2.704788,3.745087c0.208061,0.416122 0.168716,0.835999 0.208061,1.040306c0.211884,1.100227 1.079887,1.847893 1.456421,2.496727c0.233513,0.40239 0.416122,0.624184 0.416122,0.624184c0.208061,0.416122 1.009666,1.28437 1.248367,1.456421c0.377419,0.272034 0.539711,0.314796 1.040298,0.624184c0.559685,0.345909 2.055954,1.287964 2.704788,1.66449c0.40239,0.233513 0.624184,0.416115 0.624184,0.416115c0.208061,0.416122 0.832245,1.040306 1.040306,1.456429c0,0 0.416122,0.416122 0.416122,0.416122c0.624176,0.416122 1.24836,0.832237 1.456421,1.040298l0.208061,0" id="svg_2" stroke-width="10" stroke="#a7b1c2" fill="none"/>
  <path d="m84.806068,98.225975c0,0 -0.778267,-0.501045 -2.080612,-2.288666c-0.714378,-0.98056 -0.832237,-1.24836 -0.832237,-1.24836c-0.416122,-1.040306 -0.511581,-1.392647 -0.624184,-1.66449c-0.07962,-0.192223 0,-0.416122 0.832245,-0.416122c0,0 0.477051,0.060936 0.624176,0.208061c0.147125,0.147125 -0.146271,0.335777 0.416122,0.832245c0.348778,0.307899 0.624184,0.624184 0.832245,0.832245l0.208061,1.040298l0.416122,0.624184l0,0.208061" id="svg_3" stroke-width="10" stroke="#a7b1c2" fill="none"/>
  <path d="m85.222191,96.353432c-0.208061,0 -0.832245,-0.208061 -1.248367,-0.416122l-0.208061,0l-0.208061,0" id="svg_4" stroke-width="10" stroke="#a7b1c2" fill="none"/>
 </g>
</svg>